<svg xmlns="http://www.w3.org/2000/svg" version="1.1" xmlns:xlink="http://www.w3.org/1999/xlink" viewBox="0 0 200 200" width="200" height="200"><metadata><rdf:RDF xmlns:rdf="http://www.w3.org/1999/02/22-rdf-syntax-ns#" xmlns:dc="http://purl.org/dc/elements/1.1/"><rdf:Description><dc:creator>RealFaviconGenerator</dc:creator><dc:source>https://realfavicongenerator.net</dc:source></rdf:Description></rdf:RDF></metadata><rect width="200" height="200" fill="url('#gradient')"></rect><defs><linearGradient id="gradient" gradientTransform="rotate(29 0.5 0.5)"><stop offset="0%" stop-color="#697f83"></stop><stop offset="100%" stop-color="#161f2f"></stop></linearGradient></defs><g><g fill="#b1d6bb" transform="matrix(1.5816730301978479,0,0,1.5816730301978479,11.046474141097654,111.62102109726334)" stroke="#498990" stroke-width="0.4"><path d="M9.98 0L9.15-2.66L4.45-2.66L3.63 0L-0.03 0L5.19-14.22L8.41-14.22L13.66 0L9.98 0ZM6.80-10.23L5.27-5.30L8.33-5.30L6.80-10.23ZM23.35-14.22L25.33-5.30L26.96-14.22L30.36-14.22L27.34 0L23.79 0L21.88-8.11L20.02 0L16.47 0L13.45-14.22L16.86-14.22L18.49-5.30L20.44-14.22L23.35-14.22ZM39.03-3.78L39.03-3.78Q39.03-4.53 38.50-4.95Q37.97-5.37 36.63-5.82Q35.29-6.27 34.44-6.69L34.44-6.69Q31.68-8.05 31.68-10.42L31.68-10.42Q31.68-11.60 32.37-12.50Q33.06-13.41 34.32-13.91Q35.58-14.41 37.15-14.41L37.15-14.41Q38.68-14.41 39.90-13.87Q41.11-13.32 41.79-12.31Q42.46-11.30 42.46-10L42.46-10L39.04-10Q39.04-10.87 38.51-11.35Q37.98-11.83 37.07-11.83L37.07-11.83Q36.15-11.83 35.62-11.42Q35.09-11.02 35.09-10.39L35.09-10.39Q35.09-9.84 35.67-9.40Q36.26-8.96 37.73-8.48Q39.21-8.01 40.16-7.46L40.16-7.46Q42.46-6.13 42.46-3.80L42.46-3.80Q42.46-1.93 41.05-0.87Q39.65 0.20 37.20 0.20L37.20 0.20Q35.47 0.20 34.07-0.42Q32.67-1.04 31.96-2.12Q31.25-3.20 31.25-4.61L31.25-4.61L34.69-4.61Q34.69-3.47 35.28-2.92Q35.87-2.38 37.20-2.38L37.20-2.38Q38.05-2.38 38.54-2.75Q39.03-3.12 39.03-3.78ZM50.50-7.40L50.50-4.85L44.63-4.85L44.63-7.40L50.50-7.40ZM60.55-3.78L60.55-3.78Q60.55-4.53 60.01-4.95Q59.48-5.37 58.14-5.82Q56.81-6.27 55.96-6.69L55.96-6.69Q53.19-8.05 53.19-10.42L53.19-10.42Q53.19-11.60 53.88-12.50Q54.57-13.41 55.83-13.91Q57.09-14.41 58.66-14.41L58.66-14.41Q60.20-14.41 61.41-13.87Q62.63-13.32 63.30-12.31Q63.97-11.30 63.97-10L63.97-10L60.56-10Q60.56-10.87 60.02-11.35Q59.49-11.83 58.58-11.83L58.58-11.83Q57.67-11.83 57.13-11.42Q56.60-11.02 56.60-10.39L56.60-10.39Q56.60-9.84 57.19-9.40Q57.77-8.96 59.25-8.48Q60.72-8.01 61.67-7.46L61.67-7.46Q63.97-6.13 63.97-3.80L63.97-3.80Q63.97-1.93 62.57-0.87Q61.16 0.20 58.71 0.20L58.71 0.20Q56.98 0.20 55.58-0.42Q54.18-1.04 53.47-2.12Q52.76-3.20 52.76-4.61L52.76-4.61L56.20-4.61Q56.20-3.47 56.79-2.92Q57.38-2.38 58.71-2.38L58.71-2.38Q59.56-2.38 60.05-2.75Q60.55-3.12 60.55-3.78ZM70.69 0.20L70.69 0.20Q68.26 0.20 66.76-1.25Q65.25-2.71 65.25-5.03L65.25-5.03L65.25-5.30Q65.25-6.92 65.85-8.16Q66.46-9.40 67.61-10.08Q68.76-10.76 70.34-10.76L70.34-10.76Q72.57-10.76 73.86-9.38Q75.15-8.00 75.15-5.53L75.15-5.53L75.15-4.25L68.60-4.25Q68.78-3.36 69.38-2.85Q69.97-2.34 70.92-2.34L70.92-2.34Q72.48-2.34 73.36-3.44L73.36-3.44L74.86-1.66Q74.25-0.81 73.12-0.31Q71.99 0.20 70.69 0.20ZM70.32-8.22L70.32-8.22Q68.88-8.22 68.60-6.31L68.60-6.31L71.92-6.31L71.92-6.56Q71.94-7.35 71.52-7.79Q71.10-8.22 70.32-8.22ZM76.41-10.57L79.49-10.57L79.60-9.33Q80.69-10.76 82.62-10.76L82.62-10.76Q84.27-10.76 85.08-9.78Q85.90-8.79 85.93-6.81L85.93-6.81L85.93 0L82.63 0L82.63-6.67Q82.63-7.47 82.30-7.85Q81.98-8.22 81.13-8.22L81.13-8.22Q80.17-8.22 79.70-7.46L79.70-7.46L79.70 0L76.41 0L76.41-10.57ZM93.28-2.97L93.28-2.97Q93.28-3.39 92.84-3.64Q92.40-3.90 91.17-4.17Q89.94-4.44 89.14-4.89Q88.34-5.33 87.92-5.97Q87.50-6.60 87.50-7.42L87.50-7.42Q87.50-8.88 88.70-9.82Q89.90-10.76 91.85-10.76L91.85-10.76Q93.94-10.76 95.21-9.81Q96.47-8.87 96.47-7.32L96.47-7.32L93.17-7.32Q93.17-8.59 91.84-8.59L91.84-8.59Q91.32-8.59 90.97-8.31Q90.62-8.02 90.62-7.59L90.62-7.59Q90.62-7.15 91.04-6.88Q91.47-6.60 92.42-6.43Q93.36-6.25 94.07-6.01L94.07-6.01Q96.46-5.19 96.46-3.07L96.46-3.07Q96.46-1.62 95.17-0.71Q93.89 0.20 91.85 0.20L91.85 0.20Q90.49 0.20 89.42-0.29Q88.36-0.78 87.76-1.62Q87.17-2.46 87.17-3.39L87.17-3.39L90.24-3.39Q90.26-2.66 90.73-2.32Q91.20-1.98 91.93-1.98L91.93-1.98Q92.61-1.98 92.94-2.26Q93.28-2.53 93.28-2.97ZM103.11 0.20L103.11 0.20Q100.67 0.20 99.17-1.25Q97.67-2.71 97.67-5.03L97.67-5.03L97.67-5.30Q97.67-6.92 98.27-8.16Q98.87-9.40 100.02-10.08Q101.17-10.76 102.75-10.76L102.75-10.76Q104.98-10.76 106.27-9.38Q107.56-8.00 107.56-5.53L107.56-5.53L107.56-4.25L101.02-4.25Q101.19-3.36 101.79-2.85Q102.38-2.34 103.33-2.34L103.33-2.34Q104.89-2.34 105.77-3.44L105.77-3.44L107.28-1.66Q106.66-0.81 105.53-0.31Q104.40 0.20 103.11 0.20ZM102.73-8.22L102.73-8.22Q101.29-8.22 101.02-6.31L101.02-6.31L104.34-6.31L104.34-6.56Q104.36-7.35 103.94-7.79Q103.52-8.22 102.73-8.22ZM112.35-10.57L112.35 0L109.05 0L109.05-10.57L112.35-10.57ZM108.86-13.29L108.86-13.29Q108.86-13.99 109.37-14.44Q109.87-14.89 110.68-14.89Q111.49-14.89 112.00-14.44Q112.51-13.99 112.51-13.29Q112.51-12.59 112.00-12.14Q111.49-11.69 110.68-11.69Q109.87-11.69 109.37-12.14Q108.86-12.59 108.86-13.29Z"></path></g></g></svg>